<?xml version="1.0" encoding="UTF-8"?>
<svg width="24" height="24" viewBox="0 0 24 24" fill="none" xmlns="http://www.w3.org/2000/svg">
  <path d="M9.88 9.88C9.58525 10.1546 9.34884 10.4859 9.18487 10.8539C9.02091 11.2219 8.93274 11.6191 8.92563 12.0219C8.91852 12.4247 8.99262 12.8247 9.14351 13.1984C9.29439 13.5721 9.51897 13.9124 9.80384 14.1973C10.0887 14.4821 10.429 14.7067 10.8027 14.8576C11.1764 15.0085 11.5764 15.0826 11.9792 15.0755C12.382 15.0684 12.7792 14.9802 13.1472 14.8162C13.5152 14.6523 13.8465 14.4159 14.1211 14.1211" stroke="#64748B" stroke-width="2" stroke-linecap="round" stroke-linejoin="round"/>
  <path d="M10.73 5.08C11.1513 5.02751 11.5754 5.00079 12 5C19 5 22 12 22 12C21.5904 12.8742 21.0732 13.7026 20.4551 14.4766M18.2076 16.6907C16.5946 17.9819 14.6016 18.7295 12 19C5 19 2 12 2 12C3.24389 9.68192 4.96914 7.65663 7.10396 6.14831" stroke="#64748B" stroke-width="2" stroke-linecap="round" stroke-linejoin="round"/>
  <path d="M2 2L22 22" stroke="#64748B" stroke-width="2" stroke-linecap="round" stroke-linejoin="round"/>
</svg>